# xmcd
#
# Track frame offsets: 
#        150
#        17962
#        38420
#        60736
#        84445
#        105297
#        138518
#        157715
#        179896
#        200713
#        222878
#        242735
#        262376
#        280334
#
# Disc length: 4215 seconds
#
# Revision: 0
# Processed by: cddbd v1.5.2PL0 Copyright (c) Steve Scherf et al.
# Submitted via: ExactAudioCopyFreeDBPlugin 1.0
#
DISCID=ca10750e
DTITLE=Walter Trout - We're all in this together
DYEAR=1900
DGENRE=Blues
TTITLE0=Gonna Hurt Like Hell
TTITLE1=Ain't Goin' Back
TTITLE2=The Other Side Of The Pillow
TTITLE3=She Listens To The Blackbird Sing
TTITLE4=Mr. Davis
TTITLE5=The Sky Is Crying
TTITLE6=Somebody Goin' Down
TTITLE7=She Steals My Heart Away
TTITLE8=Crash And Burn
TTITLE9=Too Much To Carry
TTITLE10=Do You Still See Me At All
TTITLE11=Got Nothin' Left
TTITLE12=Blues For Jimmy T.
TTITLE13=We're All In This Together
EXTD=
EXTT0=
EXTT1=
EXTT2=
EXTT3=
EXTT4=
EXTT5=
EXTT6=
EXTT7=
EXTT8=
EXTT9=
EXTT10=
EXTT11=
EXTT12=
EXTT13=
PLAYORDER=
